<?xml version="1.0" encoding="UTF-8" standalone="no" ?>
<!DOCTYPE svg PUBLIC "-//W3C//DTD SVG 1.1//EN" "http://www.w3.org/Graphics/SVG/1.1/DTD/svg11.dtd">
<svg xmlns="http://www.w3.org/2000/svg" version="1.1" width="1080"
     height="1080" viewBox="-14.55 -23.64 1080 1080" xml:space="preserve">
<desc>Created with Fabric.js 5.2.4</desc>
    <defs>
</defs>
    <rect x="0" y="0" width="100%" height="100%" fill="transparent"></rect>
    <g transform="matrix(1 0 0 1 540 540)" id="efc65cb8-55c4-49fa-b93d-ecfbf603c060">
</g>
    <g transform="matrix(1 0 0 1 540 540)" id="2ac077b1-0929-4e1a-b114-40b4242e8f0d">
<rect style="stroke: none; stroke-width: 1; stroke-dasharray: none; stroke-linecap: butt; stroke-dashoffset: 0; stroke-linejoin: miter; stroke-miterlimit: 4; fill: rgb(255,255,255); fill-rule: nonzero; opacity: 1; visibility: hidden;"
      vector-effect="non-scaling-stroke" x="-540" y="-540" rx="0" ry="0" width="1080" height="1080"/>
</g>
    <g transform="matrix(0 0 0 0 0 0)">
<g style="">
</g>
</g>
    <g transform="matrix(0 0 0 0 0 0)">
<g style="">
</g>
</g>
    <g transform="matrix(0 0 0 0 0 0)">
<g style="">
</g>
</g>
    <g transform="matrix(0 0 0 0 0 0)">
<g style="">
</g>
</g>
    <g transform="matrix(1 0 0 1 541.25 541.44)" style="filter: url(#SVGID_83);"
       id="cf816ef6-a164-49f1-801e-403d6cb849a9">
<filter id="SVGID_83" y="-22%" height="144%" x="-20%" width="140%">
	<feGaussianBlur in="SourceAlpha" stdDeviation="0.5"></feGaussianBlur>
    <feOffset dx="1" dy="1" result="oBlur"></feOffset>
    <feFlood flood-color="rgb(0,0,0)" flood-opacity="1"/>
    <feComposite in2="oBlur" operator="in"/>
    <feMerge>
		<feMergeNode></feMergeNode>
        <feMergeNode in="SourceGraphic"></feMergeNode>
	</feMerge>
</filter>
        <text xml:space="preserve" font-family="Lato" font-size="41" font-style="normal" font-weight="900"
              style="stroke: none; stroke-width: 1; stroke-dasharray: none; stroke-linecap: butt; stroke-dashoffset: 0; stroke-linejoin: miter; stroke-miterlimit: 4; fill: rgb(255,251,251); fill-rule: nonzero; opacity: 1; white-space: pre;"><tspan x="-455.67" y="-21.87" >Yevhen</tspan>
            <tspan x="-455.67" y="47.63">&amp; Anastassia</tspan></text>
</g>
</svg>